<?xml version="1.0" encoding="UTF-8"?>
<!DOCTYPE svg PUBLIC "-//W3C//DTD SVG 1.1//EN" "http://www.w3.org/Graphics/SVG/1.1/DTD/svg11.dtd">
<svg version="1.1" xmlns="http://www.w3.org/2000/svg" xmlns:xlink="http://www.w3.org/1999/xlink" x="0" y="0" width="1300" height="600" viewBox="0, 0, 1300, 600">
  <g id="Layer_1">
    <path d="M517.5,51 L733.5,51 L733.5,171 L517.5,171 L517.5,51 z" fill-opacity="0" stroke="#000000" stroke-width="1"/>
    <path d="M517.5,178 L733.5,178 L733.5,298 L517.5,298 L517.5,178 z" fill-opacity="0" stroke="#000000" stroke-width="1"/>
    <path d="M517.5,303 L733.5,303 L733.5,423 L517.5,423 L517.5,303 z" fill-opacity="0" stroke="#000000" stroke-width="1"/>
    <path d="M517.5,430 L733.5,430 L733.5,550 L517.5,550 L517.5,430 z" fill-opacity="0" stroke="#000000" stroke-width="1"/>
    <text transform="matrix(1, 0, 0, 1, 540, 56.5)"/>
    <text transform="matrix(1, 0, 0, 1, 214.086, 109)">
      <tspan x="-194.086" y="6.5" font-family="Chalkboard" font-size="24" fill="#000000">hostname - helmsdeep.local </tspan>
    </text>
    <text transform="matrix(1, 0, 0, 1, 247.708, 242)">
      <tspan x="-227.708" y="8" font-family="Chalkboard" font-size="24" fill="#000000">socket - 192.168.0.10:57753 port - 57753</tspan>
    </text>
    <text transform="matrix(1, 0, 0, 1, 203.05, 362.5)">
      <tspan x="-183.05" y="8" font-family="Chalkboard" font-size="24" fill="#000000">ip/network address - 192.168.0.10</tspan>
    </text>
    <text transform="matrix(1, 0, 0, 1, 242.325, 489.5)">
      <tspan x="-222.325" y="8" font-family="Chalkboard" font-size="24" fill="#000000">mac/physical address - c8:2a:14:55:89:cc</tspan>
    </text>
    <text transform="matrix(1, 0, 0, 1, 996.669, 109)">
      <tspan x="-194.086" y="6.5" font-family="Chalkboard" font-size="24" fill="#000000">hostname - rhildred.github.io </tspan>
    </text>
    <text transform="matrix(1, 0, 0, 1, 1030.292, 242)">
      <tspan x="-227.708" y="8" font-family="Chalkboard" font-size="24" fill="#000000">socket - 151.101.125.147:80 port - 80</tspan>
    </text>
    <text transform="matrix(1, 0, 0, 1, 1011.633, 363)">
      <tspan x="-209.05" y="7.5" font-family="Chalkboard" font-size="24" fill="#000000">ip/network address - 151.101.125.147</tspan>
    </text>
    <text transform="matrix(1, 0, 0, 1, 1030.292, 489.5)">
      <tspan x="-227.708" y="8" font-family="Chalkboard" font-size="24" fill="#000000">mac/physical address - a8:4e:3f:d0:73:c2</tspan>
    </text>
  </g>
  <g id="Layer_2">
    <text transform="matrix(1, 0, 0, 1, 592.13, 95)">
      <tspan x="-58.13" y="-7.5" font-family="Chalkboard" font-size="24" fill="#000000">Application</tspan>
      <tspan x="-58.13" y="23.5" font-family="Chalkboard" font-size="24" fill="#000000">		Layer</tspan>
    </text>
    <text transform="matrix(1, 0, 0, 1, 592.13, 220)">
      <tspan x="-58.099" y="-7.5" font-family="Chalkboard" font-size="24" fill="#000000">Transport</tspan>
      <tspan x="-58.099" y="23.5" font-family="Chalkboard" font-size="24" fill="#000000">		Layer</tspan>
    </text>
    <text transform="matrix(1, 0, 0, 1, 592.13, 348)">
      <tspan x="-58.099" y="-7.5" font-family="Chalkboard" font-size="24" fill="#000000">Network</tspan>
      <tspan x="-58.099" y="23.5" font-family="Chalkboard" font-size="24" fill="#000000">		Layer</tspan>
    </text>
    <text transform="matrix(1, 0, 0, 1, 592.13, 465.5)">
      <tspan x="-56.367" y="8" font-family="Chalkboard" font-size="24" fill="#000000">Link Layer</tspan>
    </text>
  </g>
  <g id="Layer_3"/>
</svg>
